<?xml version="1.0" standalone="no"?>
<!DOCTYPE svg PUBLIC "-//W3C//DTD SVG 20010904//EN"
 "http://www.w3.org/TR/2001/REC-SVG-20010904/DTD/svg10.dtd">
<svg version="1.0" xmlns="http://www.w3.org/2000/svg"
 width="271.000000pt" height="271.000000pt" viewBox="0 0 271.000000 271.000000"
 preserveAspectRatio="xMidYMid meet">
<metadata>
Created by potrace 1.14, written by Peter Selinger 2001-2017
</metadata>
<g transform="translate(0.000000,271.000000) scale(0.100000,-0.100000)"
fill="#000000" stroke="none">
<path d="M1072 1717 l-422 -422 0 -335 0 -335 688 691 c378 380 716 721 752
757 l64 67 -329 0 -330 0 -423 -423z"/>
<path d="M1023 2123 c29 -4 29 -5 -14 -26 -24 -12 -51 -28 -60 -37 -65 -59
-110 -90 -129 -90 -6 0 -24 -13 -40 -30 -16 -16 -34 -30 -40 -30 -5 0 -19 -9
-31 -21 -11 -11 -26 -18 -33 -16 -16 6 -26 -120 -26 -318 l0 -130 245 245 245
245 0 107 0 108 -72 -1 c-40 -1 -60 -4 -45 -6z"/>
<path d="M1605 1309 c-4 -6 -5 -12 -2 -15 2 -3 7 2 10 11 7 17 1 20 -8 4z"/>
<path d="M1628 1288 c9 -9 9 -15 0 -25 -8 -10 -8 -17 0 -25 17 -17 15 -33 -3
-18 -12 10 -15 10 -15 -3 0 -8 6 -17 13 -19 6 -3 -3 -5 -21 -5 -19 0 -37 -4
-40 -9 -4 -5 -19 -15 -34 -23 -16 -8 -28 -23 -28 -33 0 -13 -7 -18 -25 -18
-14 0 -25 -5 -25 -11 0 -17 -57 -69 -77 -69 -24 0 -49 -17 -40 -27 5 -4 13 -1
18 7 8 11 9 8 3 -10 -3 -14 -12 -32 -19 -40 -11 -13 8 -37 127 -160 l141 -145
314 -3 c208 -2 314 1 311 7 -3 9 -130 146 -488 527 -58 62 -109 112 -114 113
-6 1 -5 -4 2 -11z m31 -41 c12 -15 12 -17 -3 -11 -9 3 -16 13 -16 22 0 8 1 13
3 11 1 -2 9 -12 16 -22z m-289 -303 c0 -8 -19 -13 -24 -6 -3 5 1 9 9 9 8 0 15
-2 15 -3z"/>
<path d="M1308 998 c19 -19 14 -32 -5 -17 -17 12 -17 12 -1 -6 14 -15 21 -16
30 -7 12 12 -5 42 -25 42 -7 0 -7 -4 1 -12z"/>
</g>
</svg>
